<svg xmlns="http://www.w3.org/2000/svg" xmlns:xlink="http://www.w3.org/1999/xlink" width="35.675" height="33.709" viewBox="0 0 35.675 33.709">
  <defs>
    <rect id="rect-1" width="42" height="42.238" x="0" y="0"/>
    <mask id="mask-2" maskContentUnits="userSpaceOnUse" maskUnits="userSpaceOnUse">
      <rect width="42" height="42.238" x="0" y="0" fill="black"/>
      <use fill="white" xlink:href="#rect-1"/>
    </mask>
  </defs>
  <g>
    <use fill="none" xlink:href="#rect-1"/>
    <g mask="url(#mask-2)">
      <rect width="42" height="42.238" x="0" y="0" fill="rgb(0,167,224)" rx="0" ry="0"/>
      <g>
        <path fill="rgb(255,255,255)" fill-rule="evenodd" d="M9.88458518 6.41495257c1.92364875.00157559 3.51017744 1.59940529 3.50603025 3.54358588-.00460798 2.03574996-1.6844944 3.5700928-3.52971528 3.52588371-1.87157854.03809211-3.51635213-1.53397212-3.5159835-3.53932253 0-1.94492205 1.59270339-3.53162996 3.53966853-3.53014706z"/>
        <path fill="rgb(255,255,255)" fill-rule="evenodd" d="M11.92831798 35.81872623h-4.1214725c-.53489472 0-.96850596-.43606663-.96850596-.97399027V17.162767c0-.53792364.43361124-.97399028.96850595-.97399028h4.12147251c.53489471 0 .96850595.43606664.96850595.97399028v17.68206164c-.00009216.53783096-.43361124.9738976-.96850595.9738976z"/>
        <path fill="rgb(255,255,255)" fill-rule="evenodd" d="M35.65510097 22.3994592c0-3.70689076-2.98809291-6.7119969-6.67420315-6.7119969h-1.0570714c-2.01663785 0-3.79826855 1.01189701-4.86990117 2.5585665-.11685845.16858771-.2250539.34366314-.32440203.52439213-.03437555-.00519016-.05474284-.00787793-.05520364-.00695111v-2.17041623c0-.22326982-.17998783-.40436955-.40209263-.40436955h-5.14204867c-.22201264 0-.40209263.18100704-.40209263.40436955v18.82148846c0 .22326982.17989567.40427686.4019083.40436954l5.25411484.00129755c.2221048.00009268.40218479-.18100705.40218479-.40436955V24.54216364c0-1.87958157 1.49068263-3.44024596 3.35958853-3.46147004.95403689-.01084374 1.81895537.37359928 2.44232336 1.00086792.61516579.61827853.99550874 1.47317303.99550874 2.4170418v10.9186265c0 .22326982.17998783.40427686.4019083.40436954l5.26710935.00129754c.2221048.00009268.4021848-.18100704.4021848-.40436954V22.39945919h.00018431z"/>
      </g>
    </g>
  </g>
</svg>
