<svg xmlns="http://www.w3.org/2000/svg" width="35.675" height="33.709" viewBox="0 0 35.675 33.709">
  <g>
    <rect width="41" height="41" x="0" y="0" fill="rgb(80,171,241)" rx="0" ry="0"/>
    <path fill="rgb(255,255,255)" fill-rule="evenodd" d="M5.43184073 29.67894355c2.72865047 1.69840411 5.9654255 2.68128177 9.43512093 2.68128177 9.74766072 0 17.64941144-7.75574524 17.64941144-17.32132034 0-.23883256-.00512803-.47589926-.01448443-.71225962.35257439-.2722956 2.53315566-1.98756368 3.06764008-3.09025493 0 0-1.7707889.72223673-3.50388229.89237733-.00341868 0-.00764706.00079464-.00170934-.0050327-.0093564.00582734 2.39226985-1.5962491 2.69455358-3.37341057 0 0-1.25249824.65610527-3.00619371 1.23009805-.29031834.09465009-.59422144.1877109-.90757092.27397317-1.1304152-1.1840091-2.73719718-1.9230215-4.52076116-1.9230215-3.42111412 0-6.19330784 2.7198658-6.19330784 6.07482314 0 .47342706.05550865.93422821.16049826 1.37666443-.47807611-.01924788-7.75834587-.4198332-12.71112087-6.3061508 0 0-2.96004147 3.9658566 1.76395153 8.04393358 0 0-1.43602766-.05615434-2.67494113-.78262913 0 0-.45504498 4.80455178 4.89474731 6.03297226 0 0-1.0526851.39131456-2.73206915.11230869 0 0 .93914877 3.88206653 5.69220059 4.24486246"/>
  </g>
</svg>
