<svg xmlns="http://www.w3.org/2000/svg" width="35.675" height="33.709" viewBox="0 0 35.675 33.709">
  <g>
    <rect width="35.675" height="34.458" x="0" y="0" fill="rgb(220,71,46)" rx="0" ry="0"/>
    <g>
      <path fill="rgb(255,255,255)" fill-rule="evenodd" d="M10.33609867 15.90406893c5.00056791-.10358429 10.00270224-.10358429 15.0024867 0l3.12261391 3.08185578v7.54283905c0 1.67702484-1.38713264 3.04707336-3.1226139 3.08261108-4.99978447.10358429-10.0019188.10358429-15.0024867 0-1.73469926-.03553772-3.12183238-1.40558624-3.12183238-3.08261108V18.9859247c0-1.67626953 1.38713312-3.04631806 3.12183237-3.08185578zm11.48611975 10.6594696c-.1706524.4960022-.54640007.7485428-1.0865364.743248-.43915368-.00377656-.79533006-.17238618-1.08888246-.48012543-.03287887-.03401947-.12368393-.1270218-.12368393-.1270218v.51566315H18.2440095v-9.19037628h1.27910614v3.02514649s.07201767-.13912201.13777352-.21095276c.19804954-.213974.43915367-.37955475.73662186-.45214081.49081802-.11871338 1.05678749.02797699 1.32607269.58219147.15891075.32739257.20352936.67671203.20352936 1.03207397.00234985 1.28461456.00234985 2.5692215.00078392 3.85383606l-.10567856.70845795zm-10.01757479.65259553h-1.44192982v-7.87325287H8.86990166v-1.31712341h4.43068504v1.31410217h-1.49594307v7.8762741zm13.39068651.15877533c.67164803-.09526825 1.129591-.44306946 1.35112381-1.06987763l.14716912-1.49858856h-1.3158989v.8717804c0 .30471038-.25519371.55120086-.56988335.55120086-.31546974 0-.57066536-.24649048-.57066536-.55120086v-1.69592286h2.44940186s.01408958-1.1832962.00391388-1.72012329c-.00391388-.22910309-.02191925-.46121978-.07045364-.68502807-.1268139-.58068085-.4501133-1.01846314-1.05522156-1.21051026-.17769814-.05670929-.36870194-.0861969-.55579376-.0975418-.62232972-.03855897-1.16716385.1330719-1.59300995.59353637-.37339974.40299988-.5033455.8884201-.5041275 1.41466522-.00032044.13703919-.00068284.27409363-.00104714.4111557-.00230598.86979676-.00461197 1.73953247.0041771 2.60869599.00313186.25631714.03287887.51792907.0931549.7674408.12994576.53607177.43289185.95722198.96754837 1.19010162.39062119.17087555.80315972.17919159 1.21961212.12021637zm-8.23042488-.15810395V20.4285593l-1.27754211.00302124v5.05678558c0 .04234314 0 .09526825-.0242672.12475586-.16438866.20490265-.36009025.37578583-.61685038.46651459-.22310066.07863617-.40079689-.0173874-.44776535-.24119568-.01878738-.08846283-.01957035-.18146515-.01957035-.2721939-.00078296-1.66719819-.0054798-5.0855179-.0078287-5.12710572h-1.27362538l-.00001526.05497742c-.00015259.53603363-.00136757 4.80578613.00158024 5.65280914.00078296.24346924.0273981.48542023.13229465.71148682.1127243.24497985.29981518.39997863.57849407.4445877.20431233.0340271.4039278.01210022.59806443-.0521698.39766502-.13231659.70922327-.3818283.98398828-.6812439.0242653-.02646636.05009842-.0521698.09628487-.09980773v.74702453h1.2767582zm3.17036438-5.79465484c.17691422.01663208.3178196.09526825.38357544.25328827l.08923912.38259124c.00574112 1.1128769.00424576 2.22575379.0027504 3.33921814l-.00040245.30441285c0 .0688095-.00860977.1383667-.02348328.20565795-.0587101.26917267-.27085113.39015198-.57144928.33042145-.18239403-.03629303-.32486343-.13761139-.44698143-.26539612-.00547981-.0060501-.04148865-.0529251-.04148865-.0529251v-.10056306l-.00313186-4.08065795s.02739906-.0756073.0876751-.12626648c.15029716-.12854004.31625365-.20944214.5236969-.1897812zm5.24245453.55648803c0-.30394744-.25519371-.55119323-.56988335-.55119323-.31546974 0-.57066536.24724579-.57066536.55119323v.95192719h1.14054871v-.95192719z"/>
      <path fill="rgb(255,255,255)" fill-rule="evenodd" d="M23.78847092 7.18217635l-.0003914 6.82333218h-1.30900898l.0015656-.73303716c-.1447409.13768547-.26826777.26629777-.4040064.38182956-.24063472.20475138-.51320793.3574076-.832045.41766862-.48948889.0924708-.90641161-.0570098-1.06250322-.54665896-.05197835-.16309037-.0833689-.3388832-.08469966-.5091565V7.18217635h1.29914561v5.2035431c0 .06895615.00571449.1386684.0182394.20626358.03945344.21442943.20352967.31536854.41731412.24376604.26059627-.0871025.45942912-.26138313.62812391-.46673939.02395388-.0293366.01964844-.08407811.01964844-.1271001V7.18217635"/>
      <path fill="rgb(255,255,255)" fill-rule="evenodd" d="M12.96155294 8.36788948c-.28415875-1.15690579-.87948307-3.59917843-.87948307-3.59917843h-1.48960243s1.14446306 3.66609311 1.65626193 5.30107976c.01839595.05912688.02685026.1233196.02685026.18524405l-.00054797 3.74903708h1.37359051l-.00054796-3.74903708c0-.06192444.0084543-.12611717.02685026-.18524405.51179887-1.63498665 1.65626193-5.30107976 1.65626193-5.30107976h-1.48960243"/>
      <path fill="rgb(255,255,255)" fill-rule="evenodd" d="M15.24969578 8.82177828c0-.99986267.8391676-1.81040191 1.87435245-1.81040191l1.8743515 1.81040191v3.54299927c0 .99986267-.83916854 1.81040192-1.8743515 1.81040192-1.03518486 0-1.87435245-.81053925-1.87435245-1.81040192V8.82177828zm1.87443065 4.13690949c.298172 0 .54084206-.23431397.54084206-.52238465V8.7501688c0-.28799439-.24267006-.52238465-.54084206-.52238465-.29817009 0-.54084014.23431397-.54084014.52238465v3.68613433c0 .28807068.24267005.52238465.54084014.52238465z"/>
    </g>
  </g>
</svg>
